<?xml version="1.0" encoding="utf-8"?><svg xmlns="http://www.w3.org/2000/svg" xmlns:xlink="http://www.w3.org/1999/xlink"><symbol viewBox="0 0 13 18" id="Vector1" xmlns="http://www.w3.org/2000/svg"><path d="M11 0H2C.897 0 0 .897 0 2v4h2V2h9v14H2v-4H0v4c0 1.103.897 2 2 2h9c1.103 0 2-.897 2-2V2c0-1.103-.897-2-2-2z"/></symbol><symbol viewBox="0 0 14 8" id="Vector2" xmlns="http://www.w3.org/2000/svg"><path d="M9 8l5-4-5-4v3H0v2h9v3z"/></symbol><symbol viewBox="0 0 20.05 14" id="Vector3" xmlns="http://www.w3.org/2000/svg"><path d="M5.822 12.77A1.993 1.993 0 007.667 14h7.639c.828 0 1.581-.521 1.873-1.297l2.757-7.352A1.001 1.001 0 0019 4H4.333L2.923.615A1 1 0 002 0H0v2h1.333l4.489 10.77zM17.557 6l-2.25 6h-7.64l-2.5-6h12.39z"/></symbol><symbol viewBox="0 0 3 3" id="Vector4" xmlns="http://www.w3.org/2000/svg"><path d="M1.5 3a1.5 1.5 0 100-3 1.5 1.5 0 000 3z"/></symbol><symbol viewBox="0 0 9.51 5.93" id="Vector5" xmlns="http://www.w3.org/2000/svg"><path d="M8.578.744L5 4.322 1.423.744.244 1.922 5 6.678l4.756-4.756L8.578.744z"/></symbol><symbol viewBox="0 0 4 8" id="Vector6" xmlns="http://www.w3.org/2000/svg"><path d="M1 9l4-4-4-4"/></symbol><symbol viewBox="0 0 4 8" id="Vector7" xmlns="http://www.w3.org/2000/svg"><path d="M1 9l4-4-4-4"/></symbol><symbol viewBox="0 0 9 17" id="Vector8" xmlns="http://www.w3.org/2000/svg"><path d="M10 1L1 9.5l9 8.5"/></symbol><symbol viewBox="0 0 15.48 15.24" id="phone1" xmlns="http://www.w3.org/2000/svg"><path d="M14.329 11.613a9.65 9.65 0 01-.225-.175 21.36 21.36 0 00-1.186-.868l-.245-.171c-.506-.355-.96-.528-1.39-.528-.577 0-1.082.32-1.498.95-.184.279-.408.415-.683.415a1.35 1.35 0 01-.55-.139c-1.632-.74-2.797-1.874-3.463-3.37-.322-.725-.218-1.198.349-1.583.322-.218.92-.625.878-1.403-.048-.885-1.999-3.546-2.821-3.848A1.602 1.602 0 002.405.89c-.944.318-1.622.876-1.96 1.614-.327.713-.313 1.55.042 2.42 1.026 2.518 2.467 4.713 4.286 6.524 1.78 1.773 3.967 3.226 6.5 4.317.23.098.469.152.644.191.06.014.111.025.149.035a.25.25 0 00.063.009h.02c1.192 0 2.623-1.089 3.063-2.33.385-1.088-.319-1.626-.883-2.057z"/></symbol><symbol viewBox="0 0 17.75 14.01" id="skipe" xmlns="http://www.w3.org/2000/svg"><path d="M17.364 8.486c.128-.455.196-.928.196-1.413C17.56 3.438 13.77.49 9.095.49c-.494 0-.977.033-1.448.096A5.948 5.948 0 005.035 0C2.324 0 .126 1.71.126 3.818c0 .705.247 1.365.675 1.931-.112.428-.171.87-.171 1.324 0 3.637 3.79 6.584 8.465 6.584.53 0 1.047-.038 1.55-.11a6.027 6.027 0 002.32.453c2.712 0 4.91-1.71 4.91-3.818 0-.61-.185-1.185-.511-1.696zm-3.928 1.734c-.391.43-.97.772-1.72 1.015-.742.24-1.632.362-2.645.362-1.216 0-2.235-.167-3.03-.495-.57-.239-1.038-.563-1.394-.962-.36-.403-.542-.804-.542-1.19 0-.24.118-.45.353-.621.232-.17.529-.256.883-.256.291 0 .542.068.746.202.195.128.362.319.496.564.15.267.314.493.487.67.166.171.405.315.71.427.306.113.72.17 1.229.17.7 0 1.274-.116 1.705-.345.422-.224.627-.492.627-.821a.732.732 0 00-.327-.625c-.23-.167-.534-.298-.904-.387a21.774 21.774 0 00-1.553-.3c-.875-.145-1.619-.318-2.211-.514a.184.184 0 01-.007-.002c-.607-.2-1.096-.48-1.454-.828a1.775 1.775 0 01-.548-1.32c0-.496.193-.945.575-1.332.378-.384.931-.682 1.643-.887.702-.202 1.538-.304 2.484-.304.756 0 1.42.068 1.975.202.558.135 1.028.318 1.398.542.372.226.65.468.823.72.176.254.265.506.265.75 0 .236-.117.45-.347.636-.232.188-.525.283-.87.283-.313 0-.559-.06-.729-.177-.158-.109-.323-.279-.505-.523a2.391 2.391 0 00-.76-.731c-.284-.168-.76-.254-1.413-.254-.607 0-1.1.095-1.467.282-.353.18-.524.386-.524.63 0 .15.055.276.168.384.12.114.29.215.505.298.222.087.452.156.681.206.236.05.63.126 1.172.223a25.952 25.952 0 011.871.38 7.01 7.01 0 011.448.515c.406.205.727.47.954.784.229.316.345.706.345 1.16 0 .542-.2 1.036-.593 1.469z"/></symbol><symbol viewBox="0 0 16.02 13.98" id="tg" xmlns="http://www.w3.org/2000/svg"><path d="M.283 6.714L3.969 8.09l1.427 4.59a.435.435 0 00.69.207l2.055-1.675a.613.613 0 01.747-.021l3.707 2.69a.434.434 0 00.68-.262L15.991.56a.435.435 0 00-.582-.494L.279 5.9a.435.435 0 00.004.813zm4.883.644l7.206-4.438c.13-.08.262.096.151.199L6.577 8.646a1.233 1.233 0 00-.382.738l-.203 1.501c-.027.2-.308.22-.363.026l-.78-2.737a.725.725 0 01.317-.816z"/></symbol></svg>